# xmcd
#
# Track frame offsets:
#	200
#	12237
#	26862
#	35975
#	56757
#	69412
#	83525
#	95300
#	117200
#	134375
#
# Disc length: 2007 seconds
#
# Revision: 2
# Processed by: cddbd v1.4b41PL1 Copyright (c) Steve Scherf et al.
# Submitted via: CDmax 1.7.6
#
DISCID=8207d50a
DTITLE=Persuasions - Good News
DYEAR=1900
DGENRE=
TTITLE0=Ain't That Good News
TTITLE1=Cupid
TTITLE2=Soothe Me
TTITLE3=Swanee River Medley: Swanee River - Ol' Man River - Raise 'Em Up
TTITLE4=I'll Come Running Back To You
TTITLE5=Let The Good Time Roll
TTITLE6=I Lost Everything (I Ever Had)
TTITLE7=Message From Maria
TTITLE8=All I Have To Do Is Dream
TTITLE9=I Won't Be The Fool Anymore
EXTD=
EXTT0=
EXTT1=
EXTT2=
EXTT3=
EXTT4=
EXTT5=
EXTT6=
EXTT7=
EXTT8=
EXTT9=
PLAYORDER=
